<svg width="1024" height="1024" viewBox="0 0 1024 1024" fill="none" xmlns="http://www.w3.org/2000/svg">
<g clip-path="url(#clip0_93_1297)">
<path d="M1024 0H0V1024H1024V0Z" fill="white"/>
<path d="M600.214 225.44L362.55 258.842C340.673 261.916 325.431 282.143 328.506 304.019L378.608 660.516C381.683 682.392 401.909 697.634 423.786 694.56L661.45 661.158C683.327 658.084 698.569 637.857 695.494 615.981L645.392 259.484C642.317 237.608 622.09 222.366 600.214 225.44Z" fill="#1A1A1A"/>
<path d="M661.511 244.968L423.847 211.567C401.97 208.492 381.744 223.734 378.669 245.611L328.567 602.107C325.492 623.984 340.734 644.21 362.611 647.285L600.275 680.686C622.151 683.761 642.378 668.519 645.453 646.643L695.555 290.146C698.629 268.27 683.388 248.043 661.511 244.968Z" fill="white" stroke="#1A1A1A" stroke-width="10"/>
<path d="M209.348 827V754.273H224.725V814.322H255.904V827H209.348ZM266.087 827V754.273H315.092V766.95H281.463V784.28H312.571V796.957H281.463V814.322H315.234V827H266.087ZM339.853 827H323.375L348.482 754.273H368.297L393.368 827H376.891L358.674 770.892H358.105L339.853 827ZM338.823 798.413H377.743V810.416H338.823V798.413ZM402.122 827V754.273H430.815C436.307 754.273 440.995 755.255 444.877 757.22C448.784 759.161 451.755 761.92 453.791 765.494C455.85 769.045 456.88 773.224 456.88 778.03C456.88 782.859 455.839 787.014 453.755 790.494C451.672 793.951 448.654 796.602 444.7 798.449C440.77 800.295 436.011 801.219 430.424 801.219H411.213V788.861H427.939C430.874 788.861 433.313 788.458 435.254 787.653C437.195 786.848 438.639 785.641 439.586 784.031C440.557 782.421 441.042 780.421 441.042 778.03C441.042 775.615 440.557 773.579 439.586 771.922C438.639 770.265 437.183 769.01 435.218 768.158C433.277 767.282 430.827 766.844 427.868 766.844H417.498V827H402.122ZM441.397 793.903L459.473 827H442.498L424.814 793.903H441.397ZM528.578 754.273V827H515.297L483.656 781.226H483.123V827H467.747V754.273H481.241L512.633 800.011H513.272V754.273H528.578ZM605.451 779.734H589.897C589.613 777.722 589.033 775.935 588.157 774.372C587.281 772.786 586.156 771.437 584.783 770.324C583.41 769.211 581.824 768.359 580.025 767.767C578.249 767.175 576.32 766.879 574.237 766.879C570.472 766.879 567.193 767.814 564.4 769.685C561.606 771.531 559.44 774.23 557.901 777.781C556.362 781.309 555.593 785.594 555.593 790.636C555.593 795.821 556.362 800.177 557.901 803.705C559.464 807.232 561.642 809.895 564.435 811.695C567.229 813.494 570.46 814.393 574.13 814.393C576.19 814.393 578.095 814.121 579.847 813.577C581.623 813.032 583.197 812.239 584.57 811.197C585.943 810.132 587.08 808.842 587.979 807.327C588.903 805.812 589.542 804.083 589.897 802.142L605.451 802.213C605.049 805.551 604.042 808.771 602.433 811.872C600.846 814.95 598.704 817.708 596.005 820.146C593.33 822.561 590.134 824.479 586.417 825.899C582.724 827.296 578.545 827.994 573.881 827.994C567.395 827.994 561.594 826.527 556.481 823.591C551.391 820.655 547.366 816.406 544.407 810.842C541.471 805.279 540.004 798.544 540.004 790.636C540.004 782.705 541.495 775.958 544.478 770.395C547.461 764.831 551.509 760.594 556.623 757.682C561.737 754.746 567.489 753.278 573.881 753.278C578.095 753.278 582.002 753.87 585.6 755.054C589.222 756.238 592.43 757.966 595.224 760.239C598.017 762.488 600.29 765.246 602.042 768.513C603.817 771.78 604.954 775.52 605.451 779.734ZM627.646 827H611.168L636.275 754.273H656.09L681.161 827H664.684L646.467 770.892H645.898L627.646 827ZM626.616 798.413H665.536V810.416H626.616V798.413ZM689.915 827V754.273H718.608C724.1 754.273 728.788 755.255 732.67 757.22C736.577 759.161 739.548 761.92 741.584 765.494C743.643 769.045 744.673 773.224 744.673 778.03C744.673 782.859 743.632 787.014 741.548 790.494C739.465 793.951 736.446 796.602 732.493 798.449C728.563 800.295 723.804 801.219 718.217 801.219H699.006V788.861H715.732C718.667 788.861 721.106 788.458 723.047 787.653C724.988 786.848 726.432 785.641 727.379 784.031C728.35 782.421 728.835 780.421 728.835 778.03C728.835 775.615 728.35 773.579 727.379 771.922C726.432 770.265 724.976 769.01 723.011 768.158C721.07 767.282 718.62 766.844 715.661 766.844H705.291V827H689.915ZM729.19 793.903L747.266 827H730.291L712.607 793.903H729.19ZM781.321 827H755.54V754.273H781.534C788.849 754.273 795.147 755.729 800.426 758.641C805.705 761.529 809.766 765.684 812.607 771.105C815.471 776.527 816.903 783.013 816.903 790.565C816.903 798.141 815.471 804.652 812.607 810.097C809.766 815.542 805.682 819.72 800.355 822.632C795.052 825.544 788.707 827 781.321 827ZM770.916 813.825H780.682C785.227 813.825 789.051 813.02 792.152 811.411C795.277 809.777 797.621 807.256 799.183 803.847C800.769 800.414 801.562 795.987 801.562 790.565C801.562 785.191 800.769 780.8 799.183 777.391C797.621 773.982 795.289 771.472 792.188 769.862C789.086 768.252 785.263 767.447 780.717 767.447H770.916V813.825Z" fill="#1A1A1A"/>
</g>
<defs>
<clipPath id="clip0_93_1297">
<rect width="1024" height="1024" fill="white"/>
</clipPath>
</defs>
</svg>
